<?xml version="1.0" encoding="utf-8"?>
<!-- Generator: Adobe Illustrator 25.2.1, SVG Export Plug-In . SVG Version: 6.00 Build 0)  -->
<svg version="1.1" id="Layer_1" xmlns="http://www.w3.org/2000/svg" xmlns:xlink="http://www.w3.org/1999/xlink" x="0px" y="0px"
	 viewBox="0 0 200 200" style="enable-background:new 0 0 200 200;" xml:space="preserve">
<style type="text/css">
	.st0{fill:#FF0000;}
</style>
<path class="st0" d="M187.5,80.9l-8.8-3.9l3.4-7.5c1.8-4,0-8.8-4-10.6L49.5,1.4c-1.9-0.9-4.1-0.9-6.1-0.2c-2,0.8-3.6,2.3-4.4,4.2
	L8.4,73.9c-1.8,4,0,8.8,4,10.6l67.4,30.1l-13.8,31.8H25.3v-28.1c0-4.4-3.6-8-8-8s-8,3.6-8,8v73.1c0,4.4,3.6,8,8,8s8-3.6,8-8v-29h46
	c3.2,0,6.1-1.9,7.3-4.8l15.8-36.4l46.5,20.8c1,0.5,2.2,0.7,3.3,0.7c1,0,1.9-0.2,2.9-0.5c2-0.8,3.6-2.3,4.4-4.2l3.4-7.5l8.8,3.9
	c1.1,0.5,2.2,0.7,3.3,0.7c3.1,0,6-1.8,7.3-4.7l17.3-38.7C193.4,87.4,191.5,82.7,187.5,80.9z M140.1,124L26.3,73.1l24.1-53.8
	l113.9,50.9l-10.5,23.4l-10.2,22.8c0,0,0,0,0,0L140.1,124z"/>
</svg>
