<?xml version="1.0" encoding="utf-8"?>
<!-- Generator: Adobe Illustrator 25.2.1, SVG Export Plug-In . SVG Version: 6.00 Build 0)  -->
<svg version="1.1" id="Layer_1" xmlns="http://www.w3.org/2000/svg" xmlns:xlink="http://www.w3.org/1999/xlink" x="0px" y="0px"
	 viewBox="0 0 200 200" style="enable-background:new 0 0 200 200;" xml:space="preserve">
<style type="text/css">
	.st0{fill:#00FF00;}
</style>
<path class="st0" d="M143.6,183.3c-1.2,0-2.6,0-4.2-0.1c-7.6-0.4-16.6-1.7-25.1-3.7c-17.5-4.1-42.6-13.2-62.4-32.9
	c-19.8-19.8-28.8-44.8-32.9-62.4c-2-8.5-3.3-17.5-3.7-25.1c-0.6-12.5,1.4-14.4,2.7-15.8l31.2-31.2c1.2-1.2,2.9-1.9,4.6-1.9
	c1.7,0,3.4,0.7,4.6,1.9L93.4,47c2.5,2.5,2.5,6.4,0.2,9c-2.3,2.6-5.9,6-9.6,9.6c-2.7,2.6-5.4,5.2-7.4,7.4c0.3,8.2,5,24.1,15.2,33.5
	c0.1,0.1,0.2,0.2,0.4,0.4c9.4,10.2,25.3,14.9,33.5,15.2c2.1-2.1,4.8-4.8,7.4-7.4c3.6-3.7,7.1-7.3,9.6-9.6c2.6-2.4,6.5-2.3,9,0.2
	l34.8,34.8c2.5,2.5,2.5,6.7,0,9.2l-31.2,31.2C154.1,181.7,152.4,183.3,143.6,183.3z M28.4,51.5c-1.2,9.2,2.4,55.6,32.8,86
	c30.3,30.3,76.7,34,86,32.8l25.5-25.5L146.9,119c-1.5,1.5-3.1,3.1-4.7,4.8c-3.6,3.7-7.1,7.3-9.6,9.6c-1.1,1-2.4,1.6-3.9,1.7
	c-10.6,0.8-32.5-4.7-46.1-19.2c-14.5-13.5-20-35.5-19.2-46.1c0.1-1.4,0.7-2.8,1.7-3.9c2.3-2.5,5.9-6,9.6-9.6
	c1.6-1.6,3.3-3.2,4.8-4.7L53.9,26L28.4,51.5z M28.6,50.6L28.6,50.6z"/>
</svg>
