<?xml version="1.0" encoding="utf-8"?>
<!-- Generator: Adobe Illustrator 25.2.1, SVG Export Plug-In . SVG Version: 6.00 Build 0)  -->
<svg version="1.1" id="Layer_1" xmlns="http://www.w3.org/2000/svg" xmlns:xlink="http://www.w3.org/1999/xlink" x="0px" y="0px"
	 viewBox="0 0 200 200" style="enable-background:new 0 0 200 200;" xml:space="preserve">
<style type="text/css">
	.st0{fill:#0000FF;}
</style>
<g>
	<path class="st0" d="M107.1,139.9H9.7c-4.1,0-7.5-3.4-7.5-7.5V69.1c0-4.1,3.4-7.5,7.5-7.5h97.4c4.1,0,7.5,3.4,7.5,7.5v63.3
		C114.6,136.5,111.3,139.9,107.1,139.9z M17.2,124.9h82.4V76.6H17.2V124.9z"/>
	<path class="st0" d="M190,175.7c-1.2,0-2.5-0.3-3.6-0.9L120.3,139c-2.4-1.3-3.9-3.8-3.9-6.6V69.1c0-2.7,1.5-5.2,3.8-6.5l66.1-37.3
		c2.3-1.3,5.2-1.3,7.5,0.1c2.3,1.3,3.7,3.8,3.7,6.5v136.4c0,2.6-1.4,5.1-3.7,6.4C192.7,175.4,191.3,175.7,190,175.7z M131.4,127.9
		l51.1,27.7v-111l-51.1,28.8V127.9z"/>
</g>
</svg>
